<svg xmlns="http://www.w3.org/2000/svg" viewBox="0 0 280 280" fill="none" shape-rendering="auto" aria-hidden="true"><!-- Generated by DiceBear (https://www.dicebear.com) --><metadata xmlns:rdf="http://www.w3.org/1999/02/22-rdf-syntax-ns#" xmlns:xsi="http://www.w3.org/2001/XMLSchema-instance" xmlns:dc="http://purl.org/dc/elements/1.1/" xmlns:dcterms="http://purl.org/dc/terms/"><rdf:RDF><rdf:Description><dc:title>Avataaars</dc:title><dc:creator>Pablo Stanley</dc:creator><dc:source xsi:type="dcterms:URI">https://avataaars.com/</dc:source><dcterms:license xsi:type="dcterms:URI">https://avataaars.com/</dcterms:license><dc:rights>Remix of ?쏛vataaars??(https://avataaars.com/) by ?쏱ablo Stanley?? licensed under ?쏤ree for personal and commercial use??(https://avataaars.com/)</dc:rights></rdf:Description></rdf:RDF></metadata><defs><g id="clothes-shirtScoopNeck-86b80a69"><path d="M100.5 51.13c27.34 0 49.5-13.2 49.5-29.48q0-2.04-.46-4A72 72 0 0 1 200 86.35v8.95H0v-8.95A72 72 0 0 1 51.53 17.3a18 18 0 0 0-.53 4.34c0 16.28 22.16 29.48 49.5 29.48" fill="#25557c"/></g><g id="mouth-twinkle-86b80a69"><path d="M32 10c0 5.37 6.16 9 14 9s14-3.63 14-9c0-1.1-.95-2-2-2-1.3 0-1.87.9-2 2-1.24 2.94-4.32 4.72-10 5-5.68-.28-8.76-2.06-10-5-.13-1.1-.7-2-2-2-1.05 0-2 .9-2 2" fill="black" fill-opacity=".6"/></g><g id="nose-default-86b80a69"><path fill-rule="evenodd" clip-rule="evenodd" d="M0 0c0 4.42 5.37 8 12 8s12-3.58 12-8" fill="black" fill-opacity=".16"/></g><g id="eyes-wink-86b80a69"><path d="M22 14a6 6 0 1 1-12 0 6 6 0 0 1 12 0" fill="black" fill-opacity=".6"/><path fill-rule="evenodd" clip-rule="evenodd" d="M56.6 16.96c1.59-3.92 5.55-6.86 10.37-7.2 4.8-.33 9.12 2 11.24 5.64.63 1.1-.1 2.06-.93 1.43-2.6-1.93-6.15-3-10-2.73a15 15 0 0 0-9.33 3.9c-.84.79-1.81.11-1.35-1.03" fill="black" fill-opacity=".6"/></g><g id="eyebrows-raisedExcitedNatural-86b80a69"><path fill-rule="evenodd" clip-rule="evenodd" d="m14.9 1.58.91-.4C21.06-.9 29-.03 33.86 2.3c.57.27.18 1.15-.4 1.1C18.54 2.27 8.5 11.56 5.08 17.86c-.1.18-.4.2-.48.03C2.3 12.56 9.05 3.9 14.9 1.58m66.47 0-.91-.4C75.22-.9 67.27-.03 62.4 2.3c-.56.27-.18 1.15.4 1.1 14.93-1.14 24.98 8.15 28.4 14.45.1.18.4.2.47.03 2.3-5.32-4.45-13.98-10.3-16.3" fill="black" fill-opacity=".6"/></g><g id="top-straightAndStrand-86b80a69"><path d="M132 18a74 74 0 0 0-74 74v96c0 8.56 1.45 16.78 4.13 24.42A71.7 71.7 0 0 1 104 199h4v-18.39a56 56 0 0 1-31.8-45.74A12 12 0 0 1 66 123v-13a12 12 0 0 1 .46-3.3c17.13-6.02 33.75-21.94 43.59-44.04l1.18-2.76q6.87 18.34 25.89 26.64a87 87 0 0 1-12.45-20.79c7.98 8.5 18.35 16.74 30.48 23.75 14.33 8.27 28.91 13.56 41.87 15.75q.96 2.2.98 4.75v13a12 12 0 0 1-10.2 11.87A56 56 0 0 1 156 180.6V199h4a71.7 71.7 0 0 1 41.88 13.42A74 74 0 0 0 206 188V92a74 74 0 0 0-74-74" fill="#c93305"/><path d="M110.05 62.66C98.59 88.39 77.95 105.75 58 108.84v4c19.95-3.1 40.59-20.45 52.05-46.18l1.18-2.76q6.87 18.35 25.89 26.63a78 78 0 0 1-4.62-6.26q-15.27-8.35-21.27-24.37a99 99 0 0 1-1.18 2.76m18.45 10.98a137 137 0 0 0 26.65 19.86c17.75 10.25 35.9 15.9 50.85 16.78v-4c-14.95-.87-33.1-6.54-50.85-16.78-12.13-7-22.5-15.24-30.48-23.75a98 98 0 0 0 3.83 7.89" fill="black" fill-opacity=".16"/></g><clipPath id="clip-86b80a69"><rect width="280" height="280" rx="0" ry="0"/></clipPath></defs><g clip-path="url(#clip-86b80a69)"><rect width="280" height="280" fill="#ffd5e5"/><path d="M140 36a56 56 0 0 0-56 56v6.17A12 12 0 0 0 74 110v14a12 12 0 0 0 10.3 11.88A56 56 0 0 0 116 180.6V199h-4a72 72 0 0 0-72 72v9h200v-9a72 72 0 0 0-72-72h-4v-18.38a56 56 0 0 0 31.7-44.73A12 12 0 0 0 206 124v-14a12 12 0 0 0-10-11.83V92a56 56 0 0 0-56-56" fill="#ffdbb4"/><path d="M116 180.61v8a56 56 0 0 0 24 5.39 56 56 0 0 0 24-5.39v-8a56 56 0 0 1-24 5.39 56 56 0 0 1-24-5.39" fill="black" fill-opacity=".1"/><use transform="translate(40 184.7)" href="#clothes-shirtScoopNeck-86b80a69"/><use transform="translate(94 140)" href="#mouth-twinkle-86b80a69"/><use transform="translate(128 130)" href="#nose-default-86b80a69"/><use transform="translate(98 98)" href="#eyes-wink-86b80a69"/><use transform="translate(91.86 82)" href="#eyebrows-raisedExcitedNatural-86b80a69"/><use transform="translate(8)" href="#top-straightAndStrand-86b80a69"/></g></svg>
